<svg width="1904" height="2285" viewBox="0 0 1904 2285" fill="none" xmlns="http://www.w3.org/2000/svg">
<rect y="1643" width="1904" height="367" fill="#F9B300"/>
<path fill-rule="evenodd" clip-rule="evenodd" d="M-477 2177L-367.542 2147C-258.083 2117 -39.1667 2057 179.75 2033C398.667 2009 617.583 2021 836.5 2051C1055.42 2081 1274.33 2129 1493.25 2171C1712.17 2213 1931.08 2249 2040.54 2267L2150 2285V1997H2040.54C1931.08 1997 1712.17 1997 1493.25 1997C1274.33 1997 1055.42 1997 836.5 1997C617.583 1997 398.667 1997 179.75 1997C-39.1667 1997 -258.083 1997 -367.542 1997H-477V2177Z" fill="#F9B300"/>
<ellipse cx="951.5" cy="1561" rx="1142.5" ry="436" fill="#F9B300"/>
<path fill-rule="evenodd" clip-rule="evenodd" d="M-477 111.75L-367.542 142.792C-258.083 173.833 -39.1667 235.917 179.75 260.75C398.667 285.583 617.583 273.167 836.5 242.125C1055.42 211.083 1274.33 161.417 1493.25 117.958C1712.17 74.5 1931.08 37.25 2040.54 18.625L2150 0V298H2040.54C1931.08 298 1712.17 298 1493.25 298C1274.33 298 1055.42 298 836.5 298C617.583 298 398.667 298 179.75 298C-39.1667 298 -258.083 298 -367.542 298H-477V111.75Z" fill="#FFF7E1"/>
<rect y="274" width="1904" height="1078" fill="#FFF7E1"/>
</svg>
